<svg width="1024" height="1024" viewBox="0 0 64 64" fill="none" xmlns="http://www.w3.org/2000/svg">
  <defs>
    <!-- Minimal atmospheric glow - reduced from 8% to 4% -->
    <radialGradient id="elite-ambient" cx="50%" cy="50%" r="52%">
      <stop offset="0%" stop-color="#8BCF7B" stop-opacity="0.04" />
      <stop offset="100%" stop-color="#8BCF7B" stop-opacity="0" />
    </radialGradient>
  </defs>

  <!-- Extremely subtle ambient glow -->
  <rect width="64" height="64" rx="11" fill="url(#elite-ambient)" />

  <!-- Refined ring - reduced thickness -->
  <path
    d="M 32 15 C 23.222 15 16 22.222 16 31 C 16 39.778 23.222 47 32 47 C 35.979 47 39.59 45.525 42.285 43.03"
    stroke="#8BCF7B"
    stroke-width="2.4"
    stroke-linecap="round"
    fill="none"
    opacity="0.98"
  />

  <!-- Refined tail with improved curve -->
  <path
    d="M 41 41 C 41 40.5 41.4 40.1 41.9 40.1 L 43.6 40.1 C 44.1 40.1 44.5 40.5 44.5 41 L 44.5 47.4 C 44.5 47.9 44.25 48.3 43.9 48.3 L 42.1 48.3 C 41.75 48.3 41.5 47.9 41.5 47.4 L 41 41 Z"
    fill="#8BCF7B"
    opacity="0.98"
  />

  <!-- Inner negative space -->
  <circle cx="32" cy="31" r="12.5" fill="#000000" opacity="0.6" />

  <!-- Waveform - moved up for better optical balance -->
  <path
    d="M 23 30.5 L 25.5 27.2 L 28.5 32 L 32 24.8 L 35.5 33 L 38.5 29.2 L 41 30.5"
    stroke="#7DB66D"
    stroke-width="1.8"
    stroke-linecap="round"
    stroke-linejoin="round"
    fill="none"
    opacity="0.6"
  />
</svg>